<?xml version="1.0" encoding="UTF-8"?>
<!DOCTYPE svg PUBLIC "-//W3C//DTD SVG 1.1//EN" "http://www.w3.org/Graphics/SVG/1.1/DTD/svg11.dtd">
<!-- Creator: CorelDRAW 2018 (64-Bit) -->
<svg xmlns="http://www.w3.org/2000/svg" xml:space="preserve" width="2480px" height="2480px" version="1.1" style="shape-rendering:geometricPrecision; text-rendering:geometricPrecision; image-rendering:optimizeQuality; fill-rule:evenodd; clip-rule:evenodd"
viewBox="0 0 248000 248000"
 xmlns:xlink="http://www.w3.org/1999/xlink">
 <defs>
  <style type="text/css">
   <![CDATA[
    .fil1 {fill:#00243B}
    .fil0 {fill:#00AAFF}
    .fil7 {fill:#24E040}
    .fil3 {fill:#87F1FF}
    .fil5 {fill:white}
    .fil6 {fill:#7DFF91;fill-rule:nonzero}
    .fil2 {fill:white;fill-rule:nonzero}
    .fil4 {fill:white;fill-rule:nonzero}
   ]]>
  </style>
 </defs>
 <g id="Layer_x0020_1">
  <metadata id="CorelCorpID_0Corel-Layer"/>
  <g id="_2680684103136">
   <path class="fil0" d="M124000 63492c33417,0 60508,27091 60508,60508 0,1350 -48,2687 -135,4015l7431 3350 -8135 36732 -2311 -499c-4302,-929 -8624,-1761 -12962,-2492 -11051,11932 -26851,19402 -44396,19402 -17545,0 -33343,-7470 -44395,-19400 -4338,729 -8661,1560 -12963,2490l-2310 499 -8136 -36732 7432 -3346c-87,-1329 -136,-2668 -136,-4019 0,-33417 27091,-60508 60508,-60508z"/>
   <path class="fil1" d="M124000 65868c32106,0 58132,26026 58132,58132 0,32106 -26026,58132 -58132,58132 -32106,0 -58132,-26026 -58132,-58132 0,-32106 26026,-58132 58132,-58132zm0 15735c23415,0 42397,18982 42397,42397 0,23415 -18982,42397 -42397,42397 -23415,0 -42396,-18982 -42396,-42397 0,-23415 18981,-42397 42396,-42397z"/>
   <path class="fil2" d="M97891 170894l1198 619 1335 -2582 1528 790 -1336 2582 1198 619 3233 -6254 -1197 -619 -1316 2547 -1528 -790 1316 -2547 -1197 -619 -3234 6254zm7611 3603c1415,551 2865,-288 3668,-2350l84 -215c803,-2062 309,-3647 -1106,-4198 -1416,-552 -2861,277 -3668,2349l-84 215c-804,2062 -309,3647 1106,4199zm459 -1149c-629,-245 -836,-1125 -260,-2606l48 -122c577,-1480 1312,-1982 1940,-1737 628,244 836,1124 259,2605l-47 122c-577,1481 -1313,1982 -1940,1738zm3385 2343l1892 434c1412,323 2536,-121 2816,-1346l16 -69c205,-892 -198,-1428 -792,-1854 546,-132 1116,-456 1309,-1299l9 -39c112,-490 41,-899 -193,-1272 -300,-492 -915,-829 -1650,-998l-1833 -420 -1574 6863zm3897 -4215c-121,530 -563,748 -1152,613l-529 -121 380 -1657 568 130c569,131 859,486 735,1025l-2 10zm-456 2847l-3 10c-123,539 -597,761 -1185,626l-687 -158 394 -1715 666 152c628,144 934,565 815,1085zm6690 3186l917 -6981 -1296 -170 -2462 3836 537 -4089 -1307 -171 -916 6981 1226 161 2553 -3987 -558 4249 1306 171zm4788 130l1348 -28 -121 -5782 1710 -36 120 5782 1338 -28 -147 -7039 -4395 92 147 7039zm5598 -210l1308 -227 115 -1511 1783 -311 629 1382 1357 -237 -3145 -6630 -1338 234 -709 7300zm1534 -2972l188 -2381 962 2180 -1150 201zm3623 -3384c159,-213 495,-685 1046,-842 562,-160 923,83 1058,557l3 9c146,513 -88,977 -775,1172l-629 179 322 1132 658 -187c726,-206 1168,23 1311,526 160,562 -136,991 -727,1159 -474,135 -888,2 -1308,-151l-317 1200c678,287 1341,339 2038,141 1344,-383 1975,-1399 1634,-2599l-3 -10c-240,-841 -840,-1224 -1568,-1247 532,-445 812,-1078 577,-1901l-2 -9c-311,-1094 -1246,-1549 -2465,-1202 -726,206 -1333,683 -1698,1236l845 837zm5762 4008l1233 -493 -199 -1502 1681 -672 900 1222 1279 -511 -4445 -5839 -1261 504 812 7291zm888 -3226l-307 -2368 1391 1935 -1084 433zm5088 774l1196 -623 -1004 -1927 392 -204c1186,-686 1733,-1856 990,-3283l-10 -18c-725,-1392 -1962,-1677 -3265,-998l-1552 808 3253 6245zm-375 -3638l-1111 -2132 321 -168c678,-353 1190,-132 1548,555 330,633 214,1238 -446,1582l-312 163z"/>
   <path class="fil0" d="M124000 81603c23415,0 42397,18982 42397,42397 0,23415 -18982,42397 -42397,42397 -23415,0 -42396,-18982 -42396,-42397 0,-23415 18981,-42397 42396,-42397z"/>
   <path class="fil3" d="M124000 83934c18833,0 34629,12996 38915,30508l-11521 -9695 -5747 3609 -21644 -17978 -21565 17846 -5975 -3312 -11355 9436c4320,-17465 20093,-30414 38892,-30414z"/>
   <path class="fil4" d="M76980 120343l150 -1226 -5263 -642 190 -1556 5262 642 149 -1218 -6407 -781 -488 4000 6407 781zm-5113 -8790l-272 1168 5918 3167 287 -1231 -3927 -2002 4408 -63 294 -1267 -6708 228zm6656 -162l386 -1154 -1168 -751 528 -1573 1387 95 402 -1198 -6718 -354 -395 1180 5578 3755zm-1728 -2533l-1838 -1190 2177 175 -339 1015zm3452 -2455l505 -1127 -2432 -1090 645 -1439 2432 1090 505 -1127 -5889 -2640 -505 1127 2398 1075 -646 1439 -2397 -1076 -506 1128 5890 2640zm4152 -8080l-5589 -3227 -599 1038 2383 3431 -3274 -1890 -603 1046 5589 3227 567 -982 -2479 -3561 3401 1964 604 -1046zm529 -684l718 -1006 -2171 -1547 915 -1284 2170 1547 718 -1006 -5256 -3746 -718 1006 2140 1525 -915 1284 -2140 -1525 -717 1006 5256 3746zm2603 -3688l841 -879 -736 -1178 1148 -1199 1215 678 874 -912 -5925 -3185 -861 899 3444 5776zm-483 -3029l-1155 -1860 1895 1087 -740 773zm4115 -804l932 -811 -1307 -1503 306 -266c910,-865 1147,-2025 179,-3138l-12 -14c-944,-1085 -2109,-1074 -3124,-191l-1210 1053 4236 4870zm-1113 -3162l-1447 -1663 251 -218c528,-460 1032,-372 1498,163 429,494 456,1058 -59,1506l-243 212zm6197 -968c504,-358 794,-858 918,-1511l-1089 -403c-70,412 -173,711 -474,925 -474,336 -1288,145 -2142,-1058l-26 -38c-801,-1127 -791,-2005 -272,-2373 270,-192 608,-195 942,-138l1 -1210c-535,-84 -1070,-10 -1619,380 -1135,806 -1326,2321 -109,4035l85 120c1217,1715 2612,2104 3785,1271zm1730 -1294l1042 -665 -1455 -2265 249 -159 2644 1508 1167 -743 -3264 -1845 -275 -3554 -1166 743 315 2948 -264 169 -1419 -2245 -1042 664 3468 5444zm5752 -3140c1269,-573 1648,-2061 813,-3909l-88 -193c-836,-1848 -2191,-2541 -3460,-1967 -1268,574 -1652,2053 -812,3909l87 194c836,1848 2192,2540 3460,1966zm-458 -1037c-563,255 -1273,-173 -1873,-1501l-50 -109c-600,-1327 -458,-2130 105,-2385 563,-255 1273,173 1873,1501l50 109c600,1327 457,2130 -105,2385zm4077 -3019l2414 -836 -393 -1132 -2413 835 392 1133zm5653 600l3337 -614 -207 -1125 -2131 392 -277 -1505 1850 -341 -207 -1124 -1850 340 -270 -1468 2095 -386 -207 -1125 -3301 608 1168 6348zm4003 -727l1226 -150 -335 -2671 293 -36 1736 2501 1373 -168 -2149 -3072 1284 -3324 -1373 167 -987 2796 -311 38 -312 -2637 -1227 149 782 6407zm6547 -409c1391,-42 2313,-1269 2251,-3297l-6 -212c-62,-2027 -1048,-3188 -2439,-3145 -1392,43 -2314,1261 -2252,3297l7 213c62,2027 1047,3187 2439,3144zm-26 -1134c-617,19 -1108,-648 -1152,-2104l-4 -120c-44,-1456 396,-2143 1013,-2162 618,-19 1109,649 1153,2105l4 120c44,1456 -396,2143 -1014,2161zm5866 -5182l-1196 -91 -2229 6331 1259 96 1382 -4186 733 4347 1296 98 -1245 -6595zm3593 7180c1370,252 2529,-753 2896,-2748l39 -209c367,-1995 -352,-3336 -1721,-3588 -1370,-252 -2528,744 -2897,2748l-38 209c-367,1995 352,3336 1721,3588zm215 -1113c-608,-112 -947,-868 -683,-2301l21 -118c264,-1433 839,-2011 1447,-1899 607,111 946,867 683,2300l-22 118c-264,1433 -839,2012 -1446,1900zm2797 1580l6167 2084 2066 -6115 -1171 -395 -1697 5022 -1328 -448 1697 -5023 -1170 -396 -1697 5023 -1328 -449 1697 -5022 -1171 -395 -2065 6114zm6953 2454l1103 558 1208 -2406 263 134 51 3043 1233 625 -75 -3749 2917 -2047 -1234 -625 -2376 1774 -279 -142 1208 -2365 -1103 -558 -2916 5758zm5727 3193c1170,756 2626,270 3727,-1433l116 -178c1101,-1703 950,-3218 -219,-3974 -1169,-756 -2620,-278 -3727,1433l-115 178c-1102,1703 -951,3217 218,3974zm624 -948c-518,-335 -543,-1163 249,-2386l65 -101c791,-1223 1544,-1538 2062,-1203 519,336 543,1164 -248,2387l-65 101c-791,1223 -1544,1538 -2063,1202zm4832 4747l5876 -3588 -1014 -799 -2511 1639 946 -2871 -1036 -815 -1371 4483 -1905 1153 1015 798zm2089 245l-1588 1658 826 791 785 -819 2151 2060 -785 819 826 790 1588 -1658 -366 -351 2634 -4843 -979 -938 -4739 2829 -353 -338zm4296 -699l-1803 3162 -1292 -1237 3095 -1925zm-1005 5628l764 971 1565 -1232 251 318c819,951 1966,1245 3125,333l15 -11c1130,-890 1176,-2054 344,-3111l-993 -1261 -5071 3993zm3213 -957l1731 -1363 206 260c433,551 321,1050 -237,1489 -514,405 -1079,403 -1500,-133l-200 -253zm444 5786l6732 -1446 -694 -1089 -2910 718 1840 -2397 -709 -1112 -2774 3779 -2179 459 694 1088zm7100 -1039l-2115 2878 -3695 -65 604 1203 3035 24 120 239 -2423 1196 550 1096 2402 -1237 112 223 -1799 2439 617 1228 2173 -3009 3554 32 -612 -1220 -2957 50 -115 -231 2394 -1170 -550 -1096 -2374 1211 -112 -222 1807 -2341 -616 -1228zm-2504 9658l1119 3203 1079 -377 -714 -2045 1445 -505 620 1775 1080 -377 -621 -1775 1410 -493 703 2011 1079 -377 -1106 -3168 -6094 2128zm2039 6499l327 1420c318,1374 1291,2067 2666,1750l9 -2c1402,-324 1903,-1348 1602,-2651l-70 -305 2030 -469 -275 -1195 -2561 591 -340 -1473 2560 -591 -278 -1204 -6288 1452 277 1204 2597 -600 340 1474 -2596 599zm1381 940l2057 -475 77 332c151,656 -207,1032 -809,1171l-9 2c-602,139 -1099,-87 -1244,-716l-72 -314zm-542 3303l411 3368 1135 -138 -262 -2151 1519 -185 228 1866 1135 -138 -228 -1867 1482 -181 259 2114 1135 -138 -407 -3332 -6407 782z"/>
   <path class="fil1" d="M96732 107778l5972 3310 21296 -17623 21453 17818 5737 -3603 20429 17192 17448 7866 -7207 32537c-10486,-2265 -21071,-3963 -31771,-5012 -25866,15360 -46905,3211 -51571,-59 -10906,1044 -21694,2764 -32378,5071l-7206 -32537 16936 -7625 20862 -17335z"/>
   <path class="fil5" d="M143135 118221l7791 -5424 1973 3038 -747 2386 1612 1606 2868 949 -1847 2678 -4145 -682 -2417 2167 -2357 -2532 -2770 -1801 -6758 -243 5343 -4041 1454 1899zm-47582 -4844l-275 3457 1375 1168 -983 3340 -5343 3184 433 -2921 -2540 2004 -8645 3743 15978 -13975zm4951 7595l23493 -22194 1575 4083 -1886 2678 7779 6183 -2946 1144 -791 4833 -4121 2543 -3929 -2532 -1140 -2824 -4125 -681 -5501 3310 -8408 3457z"/>
   <path class="fil6" d="M92934 144387l-457 -6358c-6968,756 -13918,1748 -20815,2998l1383 6247c6645,-1156 13178,-2114 19889,-2887zm47257 8010l-247 3507 -7014 -495 400 -5557c-6262,-198 -12394,-190 -18648,-22l396 5574 -7014 495c-614,-8698 -1235,-17396 -1854,-26095 12105,-578 23534,-601 35615,-13l-1634 22606zm42351 -6941l-6848 -1512 644 -2917c-6896,-1250 -13847,-2242 -20815,-2998l-868 12015c6388,708 12746,1637 19071,2774l682 -3086 6848 1512 -2155 9740c-10765,-2062 -21041,-3571 -31950,-4646l1880 -26007c12219,1179 23666,2802 35718,5150l-2207 9975zm-48709 -2593l460 -6386c-6854,-244 -13705,-230 -20558,18l452 6367c6576,-177 13067,-176 19646,1zm-59263 11300l1195 5397 -6849 1512c-1884,-8531 -3776,-17061 -5666,-25591 12053,-2348 23500,-3971 35720,-5150l1538 20318c-8740,825 -17295,2034 -25938,3514z"/>
   <path class="fil5" d="M108245 131615l486 6826 2056 -1835 1092 592 -180 -2532 1967 -71c6895,-249 13799,-263 20694,-17l1970 70 -118 1643 1437 -508 1764 1013 376 -5196c-10532,-454 -21013,-436 -31544,15zm72852 11576l1374 -6211c-10508,-1988 -21046,-3487 -31685,-4565l-619 8561 2681 -1676 649 395 273 -3769 1959 213c7015,762 14005,1759 20948,3018l1943 352 -660 2989 3137 693zm-83373 -4140l-503 -6637c-10642,1078 -21181,2577 -31692,4566l1771 7989 2133 -61 1021 -546 -1075 -4853 1944 -352c6943,-1258 13934,-2256 20948,-3018l1960 -213 259 3600 1906 -1327 1328 852z"/>
   <path class="fil2" d="M158371 161206c-923,853 -1876,1671 -2857,2451 -1036,825 -2104,1609 -3198,2348l-674 -999c1074,-726 2116,-1491 3123,-2291 693,-552 1371,-1122 2032,-1708 525,65 1050,131 1574,199zm-63077 4532c-920,-634 -1826,-1305 -2715,-2009 -884,-700 -1744,-1429 -2578,-2185 -125,-113 -248,-225 -370,-338 523,-68 1047,-134 1571,-199 691,612 1399,1206 2122,1779 855,677 1741,1332 2654,1961l-684 991z"/>
   <path class="fil7" d="M67718 146858l2216 -62 947 -506 701 3168 1789 -311c6567,-1142 13158,-2109 19780,-2872l1809 -208 -312 -4334 1791 -1248 1464 940 569 7513c-8114,819 -16184,1975 -24223,3352l-1966 336 1215 5487 -3135 693c-881,-3983 -1763,-7965 -2645,-11948zm41183 -6022c309,4344 618,8689 925,13033l3221 -227 -402 -5658 1986 -54c6253,-168 12506,-176 18759,22l1978 62 -405 5633 3218 227 115 -1614 965 -13359 -1802 -1035 -1396 494 -465 6452 -1816 -49c-6514,-175 -13030,-176 -19544,-1l-1818 49 -381 -5365 -984 -532 -2154 1922zm41106 2350l-827 11447c9553,993 19022,2381 28463,4141l1347 -6084 -3136 -692 -665 3015 -1799 -324c-6282,-1129 -12600,-2053 -18944,-2755l-1819 -202 716 -9905 -482 -294 -2514 1572 -340 81z"/>
  </g>
 </g>
</svg>
